# Blender v2.77 (sub 0) OBJ File: 'props.blend'
# www.blender.org
mtllib door.mtl
o Plane.012_Plane.014
v -0.070759 -0.000000 -0.720000
v -0.070759 -0.000000 0.720000
v -0.070759 3.010064 0.720000
v -0.070759 3.010063 -0.720000
v 0.070759 -0.000000 -0.720000
v 0.070759 -0.000000 0.720000
v 0.070759 3.010064 0.720000
v 0.070759 3.010063 -0.720000
vt 0.1122 0.7452
vt 0.1034 0.7452
vt 0.1034 0.8504
vt 0.1122 0.8504
vt 0.1038 0.7981
vt 0.1120 0.7981
vt 0.1120 0.7509
vt 0.1038 0.7509
vt 0.1034 0.8504
vt 0.1122 0.8504
vt 0.1122 0.7452
vt 0.1034 0.7452
vt 0.1121 0.7509
vt 0.1038 0.7509
vt 0.1038 0.7981
vt 0.1121 0.7981
vt 0.0224 0.9832
vt 0.2708 0.9832
vt 0.2708 0.4858
vt 0.0224 0.4858
vt 0.0224 0.9832
vt 0.0224 0.4858
vt 0.2708 0.4858
vt 0.2708 0.9832
vn 0.0000 0.0000 1.0000
vn 0.0000 -1.0000 0.0000
vn 0.0000 0.0000 -1.0000
vn 0.0000 1.0000 -0.0000
vn -1.0000 0.0000 0.0000
vn 1.0000 0.0000 -0.0000
usemtl door
s off
f 2/1/1 6/2/1 7/3/1 3/4/1
f 1/5/2 5/6/2 6/7/2 2/8/2
f 4/9/3 8/10/3 5/11/3 1/12/3
f 3/13/4 7/14/4 8/15/4 4/16/4
f 3/17/5 4/18/5 1/19/5 2/20/5
f 7/21/6 6/22/6 5/23/6 8/24/6
