# Blender v2.77 (sub 0) OBJ File: 'props.blend'
# www.blender.org
mtllib gearbox.mtl
o Cube.011
v -0.646311 0.000000 -2.010980
v -0.704036 2.104937 -1.928816
v -0.646311 0.000000 -3.280318
v -0.704036 2.029748 -3.391043
v 0.976793 0.000000 -2.010980
v 0.933338 1.019810 -2.024743
v 0.976793 0.000000 -3.280318
v 0.933338 1.005616 -3.230985
v -0.290051 0.000000 -2.010980
v -0.279188 0.837058 -2.029398
v 0.513986 0.837058 -2.029398
v 0.543845 0.000000 -2.010980
v -0.290051 0.000000 -1.340229
v -0.284419 0.337761 -1.368665
v 0.528365 0.337761 -1.368665
v 0.543845 0.000000 -1.340229
v -1.179664 0.000000 -2.010980
v -1.281137 2.104937 -1.928817
v -1.179664 0.000000 -3.280318
v -1.281137 2.029747 -3.391043
v -0.504358 1.999003 -2.100415
v -0.504358 1.934510 -3.223414
v 0.768874 1.120158 -3.104764
v 0.768874 1.138091 -2.151545
v -0.704035 2.119541 -2.520391
v 0.933337 1.022567 -2.495781
v 0.976793 0.000000 -2.507437
v -1.281137 2.119542 -2.520391
v -0.504358 2.001355 -2.517340
v 0.768874 1.138746 -2.496773
v 0.733321 1.164922 -2.450469
v 0.733321 1.164393 -2.197520
v -0.461482 1.975901 -2.158502
v -0.461482 1.977653 -2.461276
v 0.758711 1.207054 -2.450756
v 0.758711 1.206471 -2.196062
v -0.439096 2.018437 -2.156394
v -0.439096 2.020252 -2.461931
v -0.468177 1.976561 -2.573685
v -0.468176 1.919841 -3.165613
v 0.738883 1.142475 -3.057683
v 0.738883 1.159381 -2.545065
v -0.070578 1.682429 -3.128448
v -0.070579 1.726732 -2.563674
v -0.000329 1.638449 -3.121525
v -0.000329 1.680364 -2.561818
v 0.338733 1.417033 -3.088608
v 0.338733 1.447047 -2.553060
v 0.401173 1.374781 -3.082943
v 0.401173 1.402609 -2.551569
v 0.167776 1.517033 -3.296720
v 0.164142 0.000000 -3.280318
v 0.167775 1.526709 -3.156254
v 0.167775 1.560087 -1.983522
v 0.116657 0.837058 -2.029398
v 0.121471 0.337761 -1.368665
v 0.126652 0.000000 -1.340229
v 0.167775 1.566980 -2.128539
v 0.167775 1.568449 -2.505418
v 0.167775 1.568727 -2.179768
v 0.167775 1.569845 -2.454916
v 0.192686 1.611697 -2.177551
v 0.192686 1.612882 -2.455549
v -0.444176 2.022037 -2.575433
v -0.444176 1.963209 -3.172077
v -0.044915 1.726004 -3.135350
v -0.044915 1.772660 -2.565527
v 0.766113 1.185627 -3.061476
v 0.766113 1.204386 -2.546016
v 0.428628 1.418268 -3.088777
v 0.366045 1.492862 -2.554670
v 0.025661 1.726318 -2.563657
v 0.025661 1.682037 -3.128386
v 0.366045 1.460557 -3.094698
v 0.428628 1.448346 -2.553105
v -0.622357 0.593149 -2.028669
v -0.622357 0.590097 -3.234369
v 0.941268 0.500756 -3.239988
v 0.941268 0.502666 -2.026874
v -0.287334 0.168817 -1.354163
v -0.283178 0.414411 -2.024561
v 0.524955 0.414411 -2.024561
v 0.536379 0.168817 -1.354163
v -1.137555 0.593149 -2.028669
v -1.137555 0.590096 -3.234369
v 0.941268 0.503036 -2.499104
v 0.152511 0.752428 -3.227803
v 0.124153 0.168817 -1.354163
v 0.116753 0.783142 -1.963680
v -0.196026 0.783142 -1.963680
v 0.120685 0.389240 -1.442345
v -0.198582 0.389240 -1.442345
v 0.440628 0.389240 -1.442345
v 0.430452 0.783142 -1.963679
v 0.116674 0.818112 -1.941173
v -0.195974 0.818112 -1.941173
v 0.120182 0.423386 -1.421551
v -0.198255 0.423386 -1.421551
v 0.439325 0.423386 -1.421550
v 0.430248 0.818112 -1.941173
vt 0.8316 0.5520
vt 0.9629 0.5125
vt 0.9629 0.4333
vt 0.8316 0.4333
vt 0.1643 0.2654
vt 0.1643 0.4157
vt 0.0177 0.4157
vt 0.0177 0.2654
vt 0.7446 0.7501
vt 0.8759 0.6710
vt 0.8182 0.8568
vt 0.7506 0.8568
vt 0.5714 0.4174
vt 0.3270 0.4174
vt 0.3799 0.3758
vt 0.5714 0.3758
vt 0.3626 0.6709
vt 0.3626 0.5542
vt 0.3874 0.5542
vt 0.3874 0.6464
vt 0.6132 0.9083
vt 0.6132 0.8292
vt 0.6831 0.8568
vt 0.6831 0.9221
vt 0.8759 0.8942
vt 0.8759 0.9874
vt 0.8182 0.9874
vt 0.8182 0.9221
vt 0.2936 0.5585
vt 0.2936 0.6769
vt 0.2468 0.6769
vt 0.2468 0.5585
vt 0.2284 0.5644
vt 0.2284 0.4465
vt 0.0320 0.4465
vt 0.0320 0.4947
vt 0.2284 0.5644
vt 0.2284 0.6824
vt 0.0320 0.5429
vt 0.0320 0.4947
vt 0.7003 0.5265
vt 0.7003 0.4333
vt 0.6142 0.4333
vt 0.6142 0.5265
vt 0.8158 0.2664
vt 0.8158 0.0327
vt 0.9759 0.0327
vt 0.9759 0.2664
vt 0.9619 0.6710
vt 0.9619 0.8942
vt 0.3799 0.2664
vt 0.3799 0.0743
vt 0.3897 0.0895
vt 0.3897 0.2512
vt 0.5714 0.0327
vt 0.7629 0.0743
vt 0.5714 0.0743
vt 0.8158 0.4174
vt 0.7629 0.3758
vt 0.7629 0.2664
vt 0.3270 0.2664
vt 0.3270 0.0327
vt 0.3915 0.3610
vt 0.5714 0.3610
vt 0.9759 0.4174
vt 0.1643 0.0325
vt 0.0177 0.0325
vt 0.7513 0.2812
vt 0.7513 0.3610
vt 0.7445 0.3610
vt 0.7445 0.2812
vt 0.3915 0.2812
vt 0.5714 0.2664
vt 0.5714 0.2812
vt 0.5645 0.3610
vt 0.5645 0.2812
vt 0.3846 0.2812
vt 0.3846 0.3610
vt 0.7532 0.2512
vt 0.7532 0.0895
vt 0.6422 0.2512
vt 0.4987 0.0895
vt 0.6422 0.0895
vt 0.7458 0.0895
vt 0.6349 0.0895
vt 0.6217 0.0895
vt 0.6217 0.2512
vt 0.6144 0.2512
vt 0.6144 0.0895
vt 0.5184 0.2512
vt 0.5184 0.0895
vt 0.5111 0.0895
vt 0.5111 0.2512
vt 0.4987 0.2512
vt 0.2936 0.4401
vt 0.2468 0.4401
vt 0.5897 0.6709
vt 0.5668 0.6464
vt 0.3823 0.0895
vt 0.4913 0.0895
vt 0.4913 0.2512
vt 0.3823 0.2512
vt 0.6349 0.2512
vt 0.7458 0.2512
vt 0.3405 0.4401
vt 0.3405 0.5585
vt 0.7003 0.7498
vt 0.8316 0.6707
vt 0.3109 0.0325
vt 0.3109 0.2654
vt 0.9619 0.9874
vt 0.6142 0.7498
vt 0.2284 0.4465
vt 0.0320 0.4465
vt 0.2284 0.6824
vt 0.0320 0.5429
vt 0.3405 0.6769
vt 0.6132 0.9874
vt 0.6831 0.9874
vt 0.3109 0.4157
vt 0.9629 0.5916
vt 0.3874 0.4621
vt 0.3874 0.4621
vt 0.3874 0.5542
vt 0.5668 0.5542
vt 0.5668 0.6464
vt 0.5668 0.5542
vt 0.5897 0.4376
vt 0.5897 0.5542
vt 0.5668 0.4621
vt 0.3626 0.4376
vt 0.3874 0.6464
vt 0.5668 0.4621
vn 0.0147 -0.0120 -0.9998
vn 0.7096 0.0499 -0.7027
vn 0.7027 0.1018 -0.7042
vn 0.0004 0.0736 -0.9973
vn 0.9991 0.0429 -0.0000
vn 0.7031 0.0417 0.7098
vn 0.7133 0.0728 0.6970
vn 0.9975 0.0705 -0.0000
vn 0.4059 0.5447 0.7338
vn 0.2056 0.6977 0.6863
vn -0.1306 0.1695 0.9768
vn 0.0057 0.3977 0.9175
vn 0.6999 0.3568 0.6187
vn 0.5814 0.8135 0.0144
vn 0.5600 0.8273 0.0427
vn -0.6196 0.3894 0.6814
vn 0.0000 0.4997 0.8662
vn 0.0000 0.2055 0.9786
vn -0.2609 0.5704 0.7788
vn 0.1530 0.1916 0.9695
vn 0.7058 0.0397 0.7072
vn 0.0124 -0.0191 0.9997
vn 0.0010 0.0304 0.9995
vn -0.7097 0.0335 0.7037
vn -0.7009 0.0121 0.7132
vn 0.0000 0.0839 0.9965
vn -0.7064 0.0697 0.7043
vn -0.6910 0.0707 0.7194
vn 0.0000 0.0822 0.9966
vn 0.6144 0.3971 0.6818
vn 0.7056 0.0877 0.7032
vn 0.0080 -0.0088 -0.9999
vn -0.0016 0.0754 -0.9971
vn 0.0000 0.0776 -0.9970
vn 0.0000 -0.0161 -0.9998
vn 0.2543 0.9663 -0.0385
vn 0.2043 0.6551 -0.7273
vn 0.0000 0.6537 -0.7567
vn 0.0000 0.9992 -0.0390
vn 0.0000 0.6978 0.7162
vn 0.0000 -0.0184 0.9998
vn 0.5799 0.8146 -0.0112
vn 0.5662 0.8236 -0.0319
vn 0.7830 0.5388 -0.3107
vn 0.7738 0.5738 0.2682
vn 0.4032 0.5387 -0.7397
vn 0.5068 0.8568 -0.0952
vn 0.5439 0.8371 -0.0587
vn 0.5162 0.8554 0.0424
vn 0.5047 0.8626 -0.0343
vn 0.8818 0.4715 -0.0052
vn 0.7076 0.3503 -0.6137
vn 0.7822 0.5500 0.2926
vn 0.3956 0.5466 0.7380
vn 0.1935 0.9214 -0.3368
vn 0.1923 0.9179 0.3470
vn -0.2072 0.7752 0.5967
vn -0.2076 0.7895 -0.5776
vn 0.7762 0.5605 -0.2886
vn 0.5643 0.8247 -0.0367
vn 0.3908 0.5648 -0.7268
vn 0.4083 0.5664 0.7159
vn 0.4037 0.5844 -0.7039
vn 0.7972 0.1617 -0.5816
vn 0.7972 0.1517 0.5843
vn 0.1855 0.9502 0.2503
vn 0.1810 0.8934 -0.4111
vn 0.7357 0.5991 0.3157
vn 0.2503 0.8866 -0.3889
vn 0.7400 0.5414 -0.3991
vn -0.2126 0.7096 -0.6717
vn 0.7888 0.1395 -0.5986
vn 0.2130 0.8737 -0.4373
vn 0.2252 0.9202 0.3201
vn -0.1848 0.8300 0.5262
vn -0.1807 0.7239 -0.6658
vn 0.7656 0.5770 0.2845
vn 0.7747 0.5274 -0.3488
vn 0.7968 0.1187 -0.5925
vn 0.7940 0.2044 0.5724
vn 0.2665 0.9139 0.3061
vn 0.6962 0.0902 0.7122
vn -0.3062 0.8987 0.3138
vn 0.8004 0.1208 -0.5871
vn -0.1576 0.7473 -0.6455
vn -0.1655 0.8261 0.5386
vn 0.7959 0.1824 0.5772
vn 0.7880 0.2398 0.5670
vn -0.2118 0.8275 0.5199
vn 0.0000 0.0298 0.9995
vn 0.7029 0.0545 0.7092
vn 0.2602 0.5775 0.7737
vn 0.5799 0.1537 0.8001
vn 0.0000 0.1860 0.9825
vn 0.0000 0.9879 -0.1553
vn -0.5712 0.8084 -0.1416
vn 0.0000 0.9848 -0.1737
vn 0.3056 0.8995 0.3121
vn -0.5821 0.1518 0.7988
vn 0.5650 0.8132 -0.1394
usemtl (null)
s 1
f 87/1/1 78/2/2 7/3/3 52/4/4
f 86/5/5 79/6/6 5/7/7 27/8/8
f 54/9/9 2/10/10 10/11/11 55/12/12
f 54/13/9 6/14/13 24/15/14 58/16/15
f 14/17/16 56/18/17 91/19/18 92/20/19
f 79/21/6 6/22/13 11/23/20 82/24/21
f 76/25/22 1/26/23 9/27/24 81/28/25
f 88/29/26 80/30/27 13/31/28 57/32/29
f 81/33/25 9/34/24 13/35/28 80/36/27
f 82/37/21 11/38/20 15/39/30 83/40/31
f 77/41/32 3/42/33 19/43/34 85/44/35
f 25/45/36 4/46/37 20/47/38 28/48/39
f 76/25/22 2/10/10 18/49/40 84/50/41
f 30/51/42 23/52/43 41/53/44 42/54/45
f 51/55/46 4/46/37 22/56/47 53/57/48
f 25/45/36 2/58/10 21/59/49 29/60/50
f 26/61/51 8/62/52 23/52/43 30/51/42
f 6/14/13 26/61/51 30/51/42 24/15/14
f 4/46/37 25/45/36 29/60/50 22/56/47
f 58/16/15 24/15/14 32/63/53 60/64/54
f 2/58/10 25/45/36 28/48/39 18/65/40
f 78/66/2 86/5/5 27/8/8 7/67/3
f 34/68/55 33/69/56 37/70/57 38/71/58
f 29/60/50 21/59/49 33/69/56 34/68/55
f 24/15/14 30/51/42 31/72/59 32/63/53
f 59/73/60 29/60/50 34/68/55 61/74/61
f 62/75/62 63/76/63 38/71/58 37/70/57
f 32/63/53 31/72/59 35/77/64 36/78/65
f 61/74/61 34/68/55 38/71/58 63/76/63
f 60/64/54 32/63/53 36/78/65 62/75/62
f 22/56/47 29/60/50 39/79/66 40/80/67
f 29/60/50 44/81/68 39/79/66
f 23/52/43 49/82/69 41/53/44
f 43/83/70 40/80/67 65/84/71 66/85/72
f 8/62/52 51/55/46 53/57/48 23/52/43
f 45/86/73 46/87/74 72/88/75 73/89/76
f 46/87/74 45/86/73 43/83/70 44/81/68
f 48/90/77 47/91/78 74/92/79 71/93/80
f 50/94/81 49/82/69 47/91/78 48/90/77
f 43/83/70 22/56/47 40/80/67
f 77/41/32 87/1/1 52/4/4 3/42/33
f 33/69/56 60/64/54 62/75/62 37/70/57
f 31/72/59 61/74/61 63/76/63 35/77/64
f 36/78/65 35/77/64 63/76/63 62/75/62
f 30/51/42 59/73/60 61/74/61 31/72/59
f 21/59/49 58/16/15 60/64/54 33/69/56
f 83/95/31 88/29/26 57/32/29 16/96/82
f 10/97/11 14/17/16 92/20/19 90/98/83
f 2/58/10 54/13/9 58/16/15 21/59/49
f 6/22/13 54/9/9 55/12/12 11/23/20
f 45/86/73 53/57/48 22/56/47 43/83/70
f 47/91/78 53/57/48 45/86/73
f 44/81/68 29/60/50 59/73/60 46/87/74
f 46/87/74 59/73/60 48/90/77
f 48/90/77 59/73/60 30/51/42 50/94/81
f 50/94/81 30/51/42 42/54/45
f 49/82/69 23/52/43 53/57/48 47/91/78
f 68/99/84 70/100/85 75/101/86 69/102/87
f 67/103/88 66/85/72 65/84/71 64/104/89
f 71/93/80 74/92/79 73/89/76 72/88/75
f 40/80/67 39/79/66 64/104/89 65/84/71
f 47/91/78 45/86/73 73/89/76 74/92/79
f 50/94/81 42/54/45 69/102/87 75/101/86
f 44/81/68 43/83/70 66/85/72 67/103/88
f 39/79/66 44/81/68 67/103/88 64/104/89
f 46/87/74 48/90/77 71/93/80 72/88/75
f 49/82/69 50/94/81 75/101/86 70/100/85
f 42/54/45 41/53/44 68/99/84 69/102/87
f 41/53/44 49/82/69 70/100/85 68/99/84
f 15/105/30 56/106/17 88/29/26 83/95/31
f 4/107/37 51/108/46 87/1/1 77/41/32
f 8/109/52 26/110/51 86/5/5 78/66/2
f 1/26/23 76/25/22 84/50/41 17/111/90
f 4/107/37 77/41/32 85/44/35 20/112/38
f 12/113/91 82/37/21 83/40/31 16/114/82
f 10/115/11 81/33/25 80/36/27 14/116/16
f 56/106/17 14/117/16 80/30/27 88/29/26
f 2/10/10 76/25/22 81/28/25 10/11/11
f 5/118/7 79/21/6 82/24/21 12/119/91
f 26/110/51 6/120/13 79/6/6 86/5/5
f 51/108/46 8/121/52 78/2/2 87/1/1
f 91/19/18 93/122/92 99/123/93 97/124/94
f 89/125/95 90/98/83 96/126/96 95/127/97
f 11/128/20 55/129/12 89/125/95 94/130/98
f 55/129/12 10/97/11 90/98/83 89/125/95
f 15/131/30 11/128/20 94/130/98 93/122/92
f 56/18/17 15/131/30 93/122/92 91/19/18
f 95/127/97 96/126/96 98/132/99 97/124/94
f 100/133/100 95/127/97 97/124/94 99/123/93
f 93/122/92 94/130/98 100/133/100 99/123/93
f 92/20/19 91/19/18 97/124/94 98/132/99
f 94/130/98 89/125/95 95/127/97 100/133/100
f 90/98/83 92/20/19 98/132/99 96/126/96
