# Blender v2.77 (sub 0) OBJ File: 'props.blend'
# www.blender.org
mtllib rock_c.mtl
o Cube.002
v -0.385360 0.000000 -0.011429
v 0.299177 0.000000 0.325967
v 0.631662 0.000000 -0.182496
v 0.003911 0.654197 -0.375585
v 0.185466 0.625004 -0.406172
v 0.381811 0.656438 -0.247908
v 0.195891 0.671331 -0.181022
v 0.200507 0.000000 -0.623045
v -0.007942 0.000000 0.234556
v 0.119496 0.476405 0.176450
v 0.226207 0.555862 0.042885
v 0.491061 0.513037 0.059413
v 0.577797 0.000000 0.087554
v 0.289628 0.475378 0.208965
v -0.056398 0.445271 -0.194246
v -0.146380 0.382648 -0.031659
v -0.144056 0.000000 -0.507788
v -0.217891 0.000000 -0.290067
v -0.063882 0.000000 0.242256
v -0.332052 0.000000 0.097509
v -0.052899 0.304348 0.243206
v -0.219352 0.228376 0.087801
v -0.201375 0.000000 0.364075
v -0.356592 0.000000 0.262907
v -0.181619 0.259933 0.341920
v -0.290092 0.204240 0.263396
vt 0.1987 0.3557
vt 0.2574 0.3352
vt 0.2726 0.3651
vt 0.2082 0.3892
vt 0.2947 0.4219
vt 0.2634 0.4084
vt 0.3202 0.3647
vt 0.0430 0.3403
vt 0.1356 0.3536
vt 0.1332 0.3865
vt 0.0395 0.4014
vt 0.1543 0.1312
vt 0.2357 0.2278
vt 0.2099 0.2688
vt 0.0827 0.2246
vt 0.2879 0.3340
vt 0.2258 0.4368
vt 0.2576 0.4474
vt 0.1552 0.3093
vt 0.0626 0.2731
vt 0.2474 0.5659
vt 0.1835 0.5521
vt 0.1463 0.5342
vt 0.1777 0.4532
vt 0.0917 0.5136
vt 0.1425 0.4503
vt 0.1071 0.4618
vt 0.0966 0.4174
vt 0.0777 0.4552
vt 0.0749 0.4369
vt 0.0535 0.4791
vt 0.0387 0.4476
vt 0.0778 0.4976
vt 0.0382 0.4110
vn -0.7201 0.6932 0.0303
vn -0.3074 0.6987 0.6459
vn -0.1498 0.9129 0.3797
vn -0.8002 0.5996 0.0112
vn 0.6027 0.7686 -0.2143
vn -0.1885 0.9471 0.2598
vn 0.7033 0.5702 0.4245
vn 0.1942 0.2103 0.9581
vn 0.1689 0.5617 0.8099
vn 0.0708 0.1007 0.9924
vn 0.2232 0.2844 -0.9323
vn 0.2019 0.6553 -0.7279
vn 0.8961 0.2709 -0.3515
vn -0.5732 0.7379 -0.3562
vn 0.8789 0.2503 0.4060
vn -0.6967 0.3377 -0.6329
vn -0.8859 0.3656 -0.2854
vn -0.8699 0.4892 -0.0627
vn -0.7586 0.6347 0.1473
vn -0.0598 0.5593 0.8268
vn -0.7797 0.5619 0.2760
vn -0.0623 0.6374 0.7680
vn -0.9003 0.3177 0.2975
vn 0.0055 0.0920 0.9957
vn -0.8950 0.4455 0.0220
vn 0.4808 0.0054 0.8768
usemtl None
s 1
f 16/1/1 10/2/2 11/3/3 15/4/4
f 6/5/5 7/6/6 11/3/3 12/7/7
f 2/8/8 14/9/9 10/10/2 9/11/10
f 8/12/11 5/13/12 6/14/5 3/15/13
f 14/16/9 12/7/7 11/3/3 10/2/2
f 15/4/4 11/3/3 7/6/6 4/17/14
f 4/17/14 7/6/6 6/5/5 5/18/12
f 12/19/7 13/20/15 3/15/13 6/14/5
f 12/19/7 14/9/9 2/8/8 13/20/15
f 5/18/12 8/21/11 17/22/16 4/17/14
f 4/17/14 17/22/16 18/23/17 15/24/4
f 15/24/4 18/23/17 1/25/18 16/26/1
f 10/10/2 16/26/1 22/27/19 21/28/20
f 21/28/20 22/27/19 26/29/21 25/30/22
f 24/31/23 23/32/24 25/30/22 26/29/21
f 16/26/1 1/25/18 20/33/25 22/27/19
f 9/11/10 10/10/2 21/28/20 19/34/26
f 22/27/19 20/33/25 24/31/23 26/29/21
f 19/34/26 21/28/20 25/30/22 23/32/24
