# Blender v2.77 (sub 0) OBJ File: 'props.blend'
# www.blender.org
mtllib rock_b.mtl
o Cube.001
v 0.489056 1.249062 0.035152
v 0.474918 0.985055 0.460644
v 0.045727 0.964963 0.473395
v 0.078961 1.282923 0.019645
v -0.494287 -0.000000 0.148788
v -0.416113 0.639889 0.088579
v -0.137357 0.629767 -0.259518
v -0.074077 -0.000000 0.525442
v 0.078486 -0.000000 0.692548
v 0.575060 -0.000000 0.757737
v 0.004412 0.759856 0.082924
v -0.083881 0.750499 0.316722
v 0.010273 1.140277 -0.287213
v 0.446487 1.105673 -0.320759
v 0.609463 0.735613 -0.402260
v -0.252173 0.497883 -0.669167
v 0.301208 0.585559 -0.743178
v -0.417105 -0.000000 -0.755785
v -0.626564 0.323979 -0.354787
v 0.552381 0.662893 0.635808
v 0.205325 0.661586 0.633032
v 0.217268 -0.000000 0.758324
v 0.676991 0.741041 -0.007959
v 0.802997 -0.000000 -0.111045
v 0.741955 -0.000000 -0.402260
v 0.301208 -0.000000 -0.743178
v -0.311977 0.360563 -0.216926
v -0.457763 0.329665 -0.079310
v -0.373917 0.298056 -0.454383
v -0.495800 -0.000000 -0.021374
v -0.471154 -0.000000 -0.494414
v -0.764552 -0.000000 -0.354787
vt 0.5846 0.3561
vt 0.5631 0.4415
vt 0.4484 0.4106
vt 0.4821 0.3250
vt 0.4625 0.0340
vt 0.4134 0.1912
vt 0.3397 0.1447
vt 0.3534 0.0191
vt 0.4582 0.2320
vt 0.3977 0.3219
vt 0.3718 0.2216
vt 0.5469 0.2557
vt 0.5071 0.1731
vt 0.5712 0.1852
vt 0.5048 0.0370
vt 0.2965 0.2183
vt 0.3300 0.3156
vt 0.6619 0.3853
vt 0.6297 0.4735
vt 0.7260 0.3278
vt 0.7897 0.4709
vt 0.6816 0.4717
vt 0.8125 0.3544
vt 0.8649 0.4272
vt 0.8799 0.6547
vt 0.7607 0.5650
vt 0.8455 0.5660
vt 0.8996 0.6266
vt 0.9037 0.5342
vt 0.8428 0.5169
vt 0.8893 0.4847
vt 0.5365 0.0408
vt 0.6115 0.0590
vt 0.6627 0.2748
vt 0.7754 0.1607
vt 0.8231 0.1999
vt 0.9055 0.2938
vt 0.9671 0.4331
vt 0.9593 0.4874
vt 0.9653 0.5594
vn 0.5329 0.8428 0.0755
vn -0.4741 0.8753 0.0955
vn -0.5600 0.5433 0.6254
vn 0.4865 0.6204 0.6151
vn -0.7247 0.1516 0.6721
vn -0.8381 0.4058 0.3646
vn -0.7922 0.6004 0.1097
vn -0.8872 0.1641 0.4311
vn -0.7985 0.6019 -0.0149
vn -0.2133 0.2817 0.9355
vn 0.5904 0.3174 0.7421
vn -0.6310 0.1550 0.7601
vn -0.6325 0.6912 -0.3496
vn -0.6074 0.5569 -0.5665
vn 0.3875 0.5572 -0.7344
vn 0.6701 0.3956 -0.6281
vn 0.1859 0.5591 -0.8079
vn -0.5379 0.5992 -0.5930
vn -0.8772 0.4791 -0.0304
vn -0.9394 0.1949 0.2820
vn -0.6834 0.6875 -0.2455
vn -0.6125 0.7419 -0.2729
vn -0.7389 0.6043 -0.2980
vn -0.2396 0.1821 0.9536
vn 0.5829 0.1854 0.7911
vn 0.9655 0.2594 0.0197
vn 0.9886 0.1504 0.0058
vn 0.8709 0.1349 -0.4726
vn 0.3299 0.0834 -0.9403
vn -0.6528 0.2766 -0.7053
vn -0.7149 0.2972 -0.6328
vn -0.9099 0.3580 -0.2093
usemtl None
s 1
f 1/1/1 4/2/2 3/3/3 2/4/4
f 8/5/5 12/6/6 6/7/7 5/8/8
f 3/9/3 4/10/2 11/11/9 12/6/6
f 2/12/4 3/9/3 21/13/10 20/14/11
f 3/9/3 12/6/6 8/5/5 9/15/12
f 12/6/6 11/11/9 7/16/13 6/7/7
f 13/17/14 7/16/13 11/11/9 4/10/2
f 14/18/15 13/19/14 4/2/2 1/1/1
f 15/20/16 7/21/13 13/22/14 14/18/15
f 7/21/13 15/20/16 17/23/17 16/24/18
f 5/25/8 6/26/7 28/27/19 30/28/20
f 19/29/21 28/27/19 27/30/22 29/31/23
f 20/14/11 21/13/10 22/32/24 10/33/25
f 22/32/24 21/13/10 3/9/3 9/15/12
f 23/34/26 1/1/1 2/12/4 20/14/11
f 24/35/27 23/34/26 20/14/11 10/33/25
f 1/1/1 23/34/26 15/20/16 14/18/15
f 24/35/27 25/36/28 15/20/16 23/34/26
f 17/23/17 15/20/16 25/36/28 26/37/29
f 17/23/17 26/37/29 18/38/30 16/24/18
f 29/31/23 31/39/31 32/40/32 19/29/21
f 27/30/22 28/27/19 6/26/7 7/21/13
f 16/24/18 29/31/23 27/30/22 7/21/13
f 32/40/32 30/28/20 28/27/19 19/29/21
f 31/39/31 29/31/23 16/24/18 18/38/30
