# Blender v2.77 (sub 0) OBJ File: 'props.blend'
# www.blender.org
mtllib room_wall_a.mtl
o Plane.007_Plane.006
v -4.000000 0.000000 0.000000
v 4.000000 0.000000 0.000000
v -4.000000 3.600000 0.000000
v 4.000000 3.600000 0.000000
v 4.000000 1.185449 0.000000
v -4.000000 1.185451 0.000000
v 4.000000 3.009288 0.000000
v -4.000000 3.009288 0.000000
v 2.397469 0.000000 0.000000
v 2.397469 1.185449 0.000000
v 2.397469 3.009288 0.000000
v 2.397469 3.600000 0.000000
v 1.791584 0.000000 0.000000
v 1.791583 3.009288 0.000000
v 1.791583 3.600000 0.000000
v 1.791584 1.185450 0.000000
v -1.781902 0.000000 0.000000
v -1.781902 1.185450 0.000000
v -1.781902 3.600000 0.000000
v -1.781902 3.009288 0.000000
v -2.381605 0.000000 0.000000
v -2.381605 3.009288 0.000000
v -2.381605 1.185451 0.000000
v -2.381605 3.600000 0.000000
v -2.381605 2.097369 0.000000
v -1.781902 2.097369 0.000000
v 1.791584 2.097369 0.000000
v 2.397469 2.097369 0.000000
v 4.000000 2.097368 0.000000
v -4.000000 2.097370 0.000000
v 0.004840 3.009288 0.000000
v 0.004841 1.185450 0.000000
v 0.004841 0.000000 0.000000
v 0.004841 3.600000 0.000000
v 0.004841 2.097369 0.000000
vt 0.0079 0.0333
vt 0.1106 0.0333
vt 0.1106 0.1120
vt 0.0079 0.1120
vt 0.0079 0.2304
vt 0.1106 0.2304
vt 0.1106 0.2691
vt 0.0079 0.2691
vt 0.4141 0.2691
vt 0.4141 0.2304
vt 0.5158 0.2304
vt 0.5158 0.2691
vt 0.4141 0.1120
vt 0.4141 0.0333
vt 0.5158 0.0333
vt 0.5158 0.1120
vt 0.3762 0.1710
vt 0.3762 0.1135
vt 0.4143 0.1135
vt 0.4143 0.1710
vt 0.3756 0.2691
vt 0.3756 0.2304
vt 0.3756 0.1120
vt 0.3756 0.0333
vt 0.2622 0.2691
vt 0.2622 0.2304
vt 0.2622 0.1120
vt 0.2622 0.0333
vt 0.3762 0.1710
vt 0.3762 0.1135
vt 0.4143 0.1135
vt 0.4143 0.1710
vt 0.1487 0.2304
vt 0.1487 0.2691
vt 0.1487 0.0333
vt 0.1487 0.1120
vt 0.4154 0.2688
vt 0.4813 0.2688
vt 0.4813 0.2313
vt 0.4154 0.2313
vt 0.4813 0.2313
vt 0.4813 0.2688
vt 0.4154 0.2688
vt 0.4154 0.2313
vt 0.6720 0.4851
vt 0.5302 0.4851
vt 0.5302 0.4127
vt 0.6720 0.4127
vt 0.6720 0.5574
vt 0.5302 0.5574
vt 0.4813 0.2313
vt 0.4813 0.2688
vt 0.4154 0.2688
vt 0.4154 0.2313
vt 0.4154 0.2688
vt 0.4813 0.2688
vt 0.4813 0.2313
vt 0.4154 0.2313
vt 0.3762 0.2284
vt 0.4143 0.2284
vt 0.3762 0.2284
vt 0.4143 0.2284
vt 0.6320 0.6283
vt 0.5722 0.6283
vt 0.5722 0.5917
vt 0.6320 0.5917
vt 0.6320 0.6283
vt 0.5722 0.6283
vt 0.5722 0.5917
vt 0.6320 0.5917
vn 0.0000 0.0000 1.0000
usemtl room_a
s off
f 1/1/1 21/2/1 23/3/1 6/4/1
f 8/5/1 22/6/1 24/7/1 3/8/1
f 12/9/1 11/10/1 7/11/1 4/12/1
f 10/13/1 9/14/1 2/15/1 5/16/1
f 27/17/1 16/18/1 10/19/1 28/20/1
f 15/21/1 14/22/1 11/10/1 12/9/1
f 16/23/1 13/24/1 9/14/1 10/13/1
f 34/25/1 31/26/1 14/22/1 15/21/1
f 32/27/1 33/28/1 13/24/1 16/23/1
f 25/29/1 23/30/1 18/31/1 26/32/1
f 24/7/1 22/6/1 20/33/1 19/34/1
f 23/3/1 21/2/1 17/35/1 18/36/1
f 22/37/1 8/38/1 30/39/1 25/40/1
f 5/41/1 29/42/1 28/43/1 10/44/1
f 35/45/1 26/46/1 18/47/1 32/48/1
f 31/49/1 20/50/1 26/46/1 35/45/1
f 29/51/1 7/52/1 11/53/1 28/54/1
f 25/55/1 30/56/1 6/57/1 23/58/1
f 22/59/1 25/29/1 26/32/1 20/60/1
f 14/61/1 27/17/1 28/20/1 11/62/1
f 14/63/1 31/64/1 35/65/1 27/66/1
f 27/67/1 35/68/1 32/69/1 16/70/1
f 18/36/1 17/35/1 33/28/1 32/27/1
f 19/34/1 20/33/1 31/26/1 34/25/1
