# Blender v2.77 (sub 0) OBJ File: 'props.blend'
# www.blender.org
mtllib room_wall_small.mtl
o Plane.005_Plane.004
v 0.000000 0.000000 2.500000
v 0.000000 0.000000 -2.500000
v 0.000000 0.000000 0.520000
v 0.000000 0.000000 -0.920000
v 0.000000 3.600000 2.500000
v 0.000000 3.600000 -2.500000
v 0.000000 3.600000 0.520000
v 0.000000 3.600000 -0.920000
vt 0.7922 0.1446
vt 0.9126 0.1446
vt 0.9126 0.3790
vt 0.7922 0.3790
vt 0.5316 0.1446
vt 0.6825 0.1446
vt 0.6825 0.3790
vt 0.5316 0.3790
vn 1.0000 0.0000 0.0000
usemtl room_a
s off
f 4/1/1 2/2/1 6/3/1 8/4/1
f 1/5/1 3/6/1 7/7/1 5/8/1
f 3/6/1 4/1/1 8/4/1 7/7/1
