# Blender v2.77 (sub 0) OBJ File: 'props.blend'
# www.blender.org
mtllib room_wall_c.mtl
o Plane.003_Plane.002
v -4.000000 0.000000 0.000000
v 4.000000 0.000000 0.000000
v -4.000000 3.600000 0.000000
v 4.000000 3.600000 0.000000
v 4.000000 1.185449 0.000000
v -4.000000 1.185451 0.000000
v 4.000000 3.009288 0.000000
v -4.000000 3.009288 0.000000
v 2.397469 0.000000 0.000000
v 2.397469 1.185449 0.000000
v 2.397469 3.009288 0.000000
v 2.397469 3.600000 0.000000
v 1.791584 0.000000 0.000000
v 1.791583 3.009288 0.000000
v 1.791583 3.600000 0.000000
v 1.791584 1.185450 0.000000
v -1.781902 0.000000 0.000000
v -1.781902 1.185450 0.000000
v -1.781902 3.600000 0.000000
v -1.781902 3.009288 0.000000
v -2.381605 0.000000 0.000000
v -2.381605 3.009288 0.000000
v -2.381605 1.185451 0.000000
v -2.381605 3.600000 0.000000
v 1.791583 3.009288 -0.300000
v 1.791584 1.185450 -0.300000
v -1.781902 1.185450 -0.300000
v -1.781902 3.009288 -0.300000
vt 0.0079 0.0333
vt 0.1106 0.0333
vt 0.1106 0.1120
vt 0.0079 0.1120
vt 0.0079 0.2304
vt 0.1106 0.2304
vt 0.1106 0.2691
vt 0.0079 0.2691
vt 0.4141 0.2691
vt 0.4141 0.2304
vt 0.5158 0.2304
vt 0.5158 0.2691
vt 0.4141 0.1120
vt 0.4141 0.0333
vt 0.5158 0.0333
vt 0.5158 0.1120
vt 0.3756 0.2304
vt 0.3756 0.1120
vt 0.3756 0.2691
vt 0.3756 0.0333
vt 0.1487 0.2691
vt 0.1487 0.2304
vt 0.1487 0.1120
vt 0.1487 0.0333
vt 0.7043 0.7565
vt 0.7043 0.9918
vt 0.6845 0.9918
vt 0.6845 0.7565
vt 0.7756 0.7391
vt 0.5777 0.7391
vt 0.5777 0.7066
vt 0.7756 0.7066
vt 0.5777 0.7060
vt 0.7756 0.7060
vt 0.7756 0.7385
vt 0.5777 0.7385
vt 0.6831 0.9918
vt 0.6831 0.7565
vt 0.7028 0.7565
vt 0.7028 0.9918
vt 0.8745 0.4726
vt 0.8745 0.5588
vt 0.8111 0.5588
vt 0.8111 0.4726
vt 0.8745 0.5588
vt 0.8111 0.5588
vt 0.8111 0.4726
vt 0.8745 0.4726
vn 0.0000 0.0000 1.0000
vn 0.0000 1.0000 0.0000
vn -1.0000 -0.0000 0.0000
vn 1.0000 0.0000 0.0000
vn -0.0000 -1.0000 0.0000
usemtl room_a
s off
f 1/1/1 21/2/1 23/3/1 6/4/1
f 8/5/1 22/6/1 24/7/1 3/8/1
f 12/9/1 11/10/1 7/11/1 4/12/1
f 10/13/1 9/14/1 2/15/1 5/16/1
f 14/17/1 16/18/1 10/13/1 11/10/1
f 15/19/1 14/17/1 11/10/1 12/9/1
f 16/18/1 13/20/1 9/14/1 10/13/1
f 19/21/1 20/22/1 14/17/1 15/19/1
f 18/23/1 17/24/1 13/20/1 16/18/1
f 22/6/1 23/3/1 18/23/1 20/22/1
f 24/7/1 22/6/1 20/22/1 19/21/1
f 23/3/1 21/2/1 17/24/1 18/23/1
f 18/25/2 16/26/2 26/27/2 27/28/2
f 16/29/3 14/30/3 25/31/3 26/32/3
f 20/33/4 18/34/4 27/35/4 28/36/4
f 14/37/5 20/38/5 28/39/5 25/40/5
f 5/41/1 7/42/1 11/43/1 10/44/1
f 22/45/1 8/46/1 6/47/1 23/48/1
