# Blender v2.77 (sub 0) OBJ File: 'props.blend'
# www.blender.org
mtllib room_floor_hatch.mtl
o Plane.013_Plane.015
v -1.000000 0.000000 -0.920000
v -1.000000 0.000000 -2.500000
v 1.000000 0.000000 2.500000
v -1.000000 0.000000 2.500000
v 1.000000 0.000000 -0.920000
v 1.000000 0.000000 -2.500000
v 2.000000 0.000000 2.500000
v 2.000000 0.000000 -2.500000
v 2.000000 0.000000 -0.920000
v -2.000000 0.000000 -2.500000
v -2.000000 0.000000 -0.920000
v -2.000000 0.000000 2.500000
v -1.000000 0.000000 1.015000
v 1.000000 0.000000 1.015000
v 2.000000 0.000000 1.015000
v -2.000000 0.000000 1.015000
v -1.000000 -0.300000 -0.920000
v 1.000000 -0.300000 -0.920000
v -1.000000 -0.300000 1.015000
v 1.000000 -0.300000 1.015000
v -1.000000 -0.300000 -2.500000
v 1.000000 -0.300000 2.500000
v -1.000000 -0.300000 2.500000
v 1.000000 -0.300000 -2.500000
v 2.000000 -0.300000 2.500000
v 2.000000 -0.300000 -2.500000
v 2.000000 -0.300000 -0.920000
v -2.000000 -0.300000 -2.500000
v -2.000000 -0.300000 -0.920000
v -2.000000 -0.300000 2.500000
v 2.000000 -0.300000 1.015000
v -2.000000 -0.300000 1.015000
vt 0.1986 0.8869
vt 0.1355 0.8869
vt 0.1355 0.7583
vt 0.1986 0.7583
vt 0.3250 0.6597
vt 0.3250 0.7583
vt 0.1986 0.6597
vt 0.3250 0.8869
vt 0.3882 0.8869
vt 0.3882 0.9918
vt 0.3250 0.9918
vt 0.1986 0.9918
vt 0.1355 0.9918
vt 0.5579 0.6504
vt 0.7847 0.6504
vt 0.7847 0.6833
vt 0.5579 0.6833
vt 0.3882 0.6597
vt 0.3882 0.7583
vt 0.5579 0.6516
vt 0.7848 0.6516
vt 0.7848 0.6845
vt 0.5579 0.6845
vt 0.1355 0.6597
vt 0.5579 0.6844
vt 0.5579 0.6515
vt 0.7848 0.6515
vt 0.7848 0.6844
vt 0.7847 0.6838
vt 0.5579 0.6838
vt 0.5579 0.6509
vt 0.7847 0.6509
vt 0.2014 0.5210
vt 0.2014 0.3981
vt 0.1410 0.3981
vt 0.1410 0.5210
vt 0.3222 0.3038
vt 0.2014 0.3038
vt 0.3222 0.3981
vt 0.3222 0.5210
vt 0.3222 0.6213
vt 0.3826 0.6213
vt 0.3826 0.5210
vt 0.1410 0.6213
vt 0.2014 0.6213
vt 0.3826 0.3981
vt 0.3826 0.3038
vt 0.1410 0.3038
vn 0.0000 1.0000 0.0000
vn -1.0000 0.0000 0.0000
vn 0.0000 0.0000 -1.0000
vn 0.0000 0.0000 1.0000
vn 1.0000 0.0000 0.0000
vn -0.0000 -1.0000 0.0000
usemtl room_a
s off
f 1/1/1 11/2/1 16/3/1 13/4/1
f 3/5/1 14/6/1 13/4/1 4/7/1
f 5/8/1 9/9/1 8/10/1 6/11/1
f 11/2/1 1/1/1 2/12/1 10/13/1
f 14/14/2 5/15/2 18/16/2 20/17/2
f 3/5/1 7/18/1 15/19/1 14/6/1
f 13/20/3 14/21/3 20/22/3 19/23/3
f 12/24/1 4/7/1 13/4/1 16/3/1
f 1/25/4 17/26/4 18/27/4 5/28/4
f 1/29/5 13/30/5 19/31/5 17/32/5
f 14/6/1 15/19/1 9/9/1 5/8/1
f 1/1/1 5/8/1 6/11/1 2/12/1
f 17/33/6 19/34/6 32/35/6 29/36/6
f 22/37/6 23/38/6 19/34/6 20/39/6
f 18/40/6 24/41/6 26/42/6 27/43/6
f 29/36/6 28/44/6 21/45/6 17/33/6
f 22/37/6 20/39/6 31/46/6 25/47/6
f 30/48/6 32/35/6 19/34/6 23/38/6
f 20/39/6 18/40/6 27/43/6 31/46/6
f 17/33/6 21/45/6 24/41/6 18/40/6
