# Blender v2.77 (sub 0) OBJ File: 'props.blend'
# www.blender.org
mtllib trashbox.mtl
o Cube.006_Cube.005
v -0.359044 0.000000 0.359044
v -0.359044 0.522904 0.359044
v -0.359044 0.000000 -0.359044
v -0.359044 0.541045 -0.359044
v 0.359044 0.000000 0.359044
v 0.359044 0.522904 0.359044
v 0.359044 0.000000 -0.359044
v 0.359044 0.541045 -0.359044
v -0.328971 0.165098 0.328971
v -0.328971 0.289460 -0.328971
v 0.328971 0.301060 -0.328971
v 0.328971 0.210019 0.328971
v -0.341293 0.499210 0.000000
v -0.341293 0.000000 0.000000
v 0.341293 0.499210 0.000000
v 0.341293 0.000000 0.000000
v 0.312707 0.255540 0.000000
v -0.312707 0.227279 0.000000
v 0.000000 0.510101 -0.327928
v 0.000000 0.000000 -0.327928
v 0.000000 0.491961 0.327928
v 0.000000 0.000000 0.327928
v 0.000000 0.187559 0.300461
v 0.000000 0.295260 -0.300461
v 0.000000 0.499210 0.000000
v 0.000000 0.030078 0.000000
vt 0.6814 0.4766
vt 0.6666 0.3854
vt 0.7462 0.3779
vt 0.7453 0.4761
vt 0.4926 0.3127
vt 0.4006 0.3126
vt 0.3921 0.2296
vt 0.4910 0.2302
vt 0.3186 0.4846
vt 0.3082 0.5757
vt 0.2517 0.5868
vt 0.2462 0.4876
vt 0.4986 0.6702
vt 0.5883 0.6778
vt 0.5965 0.7231
vt 0.4993 0.7217
vt 0.1516 0.4922
vt 0.1465 0.4039
vt 0.2421 0.3886
vt 0.4957 0.4792
vt 0.4938 0.3776
vt 0.5995 0.3723
vt 0.6009 0.4776
vt 0.4973 0.5801
vt 0.6024 0.5824
vt 0.3911 0.4812
vt 0.3921 0.5853
vt 0.3880 0.3766
vt 0.7020 0.5687
vt 0.3246 0.3925
vt 0.1551 0.5807
vt 0.7488 0.5758
vt 0.0590 0.5933
vt 0.0595 0.4967
vt 0.5842 0.3059
vt 0.4084 0.6682
vt 0.0497 0.4006
vt 0.4020 0.7258
vt 0.5897 0.2259
vn -0.9999 0.0133 0.0006
vn -0.6917 -0.0182 -0.7219
vn -0.5919 -0.5304 -0.6068
vn -0.7260 -0.6876 0.0089
vn 0.0001 -0.0131 -0.9999
vn 0.6916 -0.0261 -0.7217
vn 0.5895 -0.5331 -0.6069
vn -0.0005 -0.7101 -0.7041
vn 1.0000 0.0009 -0.0006
vn 0.6919 0.0317 0.7213
vn 0.5925 -0.5154 0.6191
vn 0.7208 -0.6931 0.0056
vn -0.0010 0.0297 0.9995
vn -0.6904 0.0666 0.7204
vn -0.5973 -0.5076 0.6209
vn -0.0037 -0.6910 0.7228
vn 0.0000 -1.0000 0.0000
vn 0.0000 0.9996 0.0263
vn 0.0008 0.6908 -0.7230
vn -0.5770 0.5582 -0.5962
vn -0.7386 0.6740 0.0119
vn 0.0022 0.6832 0.7302
vn -0.5767 0.5562 0.5983
vn 0.7423 0.6699 0.0133
vn 0.5803 0.5508 0.5999
vn 0.5795 0.5550 -0.5967
usemtl tools
s 1
f 18/1/1 10/2/2 3/3/3 14/4/4
f 24/5/5 11/6/6 7/7/7 20/8/8
f 17/9/9 12/10/10 5/11/11 16/12/12
f 23/13/13 9/14/14 1/15/15 22/16/16
f 26/17/17 20/18/8 7/19/7 16/12/12
f 25/20/18 19/21/19 4/22/20 13/23/21
f 21/24/22 2/25/23 9/14/14 23/13/13
f 15/26/24 6/27/25 12/10/10 17/9/9
f 19/21/19 8/28/26 11/6/6 24/5/5
f 13/23/21 4/22/20 10/2/2 18/1/1
f 2/25/23 13/23/21 18/1/1 9/29/14
f 8/28/26 15/26/24 17/9/9 11/30/6
f 21/24/22 25/20/18 13/23/21 2/25/23
f 22/31/16 26/17/17 16/12/12 5/11/11
f 11/30/6 17/9/9 16/12/12 7/19/7
f 9/29/14 18/1/1 14/4/4 1/32/15
f 1/33/15 14/34/4 26/17/17 22/31/16
f 6/27/25 15/26/24 25/20/18 21/24/22
f 4/22/20 19/21/19 24/5/5 10/35/2
f 6/27/25 21/24/22 23/13/13 12/36/10
f 15/26/24 8/28/26 19/21/19 25/20/18
f 14/34/4 3/37/3 20/18/8 26/17/17
f 12/36/10 23/13/13 22/16/16 5/38/11
f 10/35/2 24/5/5 20/8/8 3/39/3
