# Blender v2.77 (sub 0) OBJ File: 'props.blend'
# www.blender.org
mtllib trashbag.mtl
o Plane.017_Plane.010
v -0.000000 0.000000 0.177489
v 0.177489 0.000000 0.000000
v -0.177489 0.000000 -0.000000
v 0.000000 0.000000 -0.177489
v -0.422608 0.037782 -0.000000
v -0.000000 0.037782 0.422608
v 0.422608 0.037782 0.000000
v 0.000000 0.037782 -0.422608
v -0.117923 -0.023124 0.117923
v 0.117923 -0.023124 -0.117923
v -0.280779 0.058313 0.280779
v 0.280779 0.058313 -0.280779
v 0.117923 -0.023124 0.117923
v -0.117923 -0.023124 -0.117923
v 0.280779 0.058313 0.280779
v -0.280779 0.058313 -0.280779
v -0.000000 -0.023124 0.000000
v -0.507423 0.262516 -0.000000
v -0.000000 0.262516 0.507423
v 0.507423 0.262516 0.000000
v 0.000000 0.262516 -0.507423
v -0.337130 0.305185 0.337130
v 0.337130 0.305185 -0.337130
v 0.337130 0.305185 0.337130
v -0.337130 0.305185 -0.337130
v -0.425990 0.480717 -0.000000
v -0.000000 0.480717 0.425990
v 0.425990 0.480717 0.000000
v 0.000000 0.480717 -0.425990
v -0.283027 0.516539 0.283027
v 0.283027 0.516539 -0.283027
v 0.283027 0.516539 0.283027
v -0.283027 0.516539 -0.283027
v -0.255804 0.638987 -0.000000
v -0.000000 0.638987 0.255804
v 0.255804 0.638987 0.000000
v 0.000000 0.638987 -0.255804
v -0.169955 0.660498 0.169955
v 0.169955 0.660498 -0.169955
v 0.169955 0.660498 0.169955
v -0.169955 0.660498 -0.169955
v -0.108546 0.742087 -0.000000
v -0.000000 0.742087 0.108546
v 0.108546 0.742087 0.000000
v 0.000000 0.742087 -0.108546
v -0.072118 0.751215 0.072118
v 0.072118 0.751215 -0.072118
v 0.072118 0.751215 0.072118
v -0.072118 0.751215 -0.072118
v -0.224597 0.916967 -0.003711
v -0.003602 0.974584 0.219706
v 0.278908 0.916721 0.000000
v 0.037006 0.819595 -0.298401
v -0.188907 0.998037 0.126104
v 0.159506 0.827901 -0.205735
v 0.100905 0.933413 0.126224
v -0.122311 0.905892 -0.132576
v -0.195498 0.916291 -0.005912
v -0.002559 0.966592 0.189141
v 0.244085 0.916076 -0.002672
v 0.032894 0.831280 -0.263190
v -0.164339 0.987068 0.107422
v 0.139841 0.838532 -0.182288
v 0.088680 0.930648 0.107527
v -0.106197 0.906622 -0.118417
v -0.061564 0.791573 -0.007936
v 0.002514 0.808278 0.056844
v 0.084428 0.791501 -0.006860
v 0.014288 0.763340 -0.093382
v -0.051215 0.815079 0.029704
v 0.049807 0.765748 -0.066513
v 0.032816 0.796341 0.029739
v -0.031906 0.788361 -0.045300
v 0.000455 0.792351 -0.007781
vt 0.1963 0.3242
vt 0.2220 0.3455
vt 0.1993 0.3599
vt 0.1746 0.3495
vt 0.2362 0.2625
vt 0.2123 0.2725
vt 0.1935 0.2409
vt 0.2187 0.2271
vt 0.3090 0.2382
vt 0.2833 0.2435
vt 0.2735 0.2055
vt 0.3086 0.1984
vt 0.1923 0.2884
vt 0.1683 0.2571
vt 0.2586 0.2496
vt 0.2451 0.2155
vt 0.1717 0.3040
vt 0.1606 0.3267
vt 0.1113 0.3216
vt 0.1412 0.2802
vt 0.3337 0.2416
vt 0.3592 0.2000
vt 0.2174 0.2981
vt 0.2320 0.3206
vt 0.2668 0.1846
vt 0.3007 0.1663
vt 0.3598 0.1546
vt 0.1560 0.2391
vt 0.1815 0.2195
vt 0.2355 0.1927
vt 0.2101 0.2096
vt 0.0746 0.2937
vt 0.1208 0.2544
vt 0.1451 0.2191
vt 0.1720 0.2009
vt 0.2264 0.1736
vt 0.2576 0.1634
vt 0.2875 0.1413
vt 0.3354 0.1159
vt 0.2009 0.1912
vt 0.0593 0.2499
vt 0.1095 0.2287
vt 0.1023 0.1961
vt 0.1330 0.1898
vt 0.1600 0.1754
vt 0.1873 0.1642
vt 0.2416 0.1347
vt 0.2665 0.1147
vt 0.2129 0.1477
vt 0.2962 0.0896
vt 0.0641 0.2021
vt 0.0745 0.1653
vt 0.0925 0.1562
vt 0.1160 0.1453
vt 0.1406 0.1357
vt 0.1634 0.1191
vt 0.2148 0.0893
vt 0.2416 0.0772
vt 0.1882 0.1037
vt 0.2628 0.0729
vt 0.1629 0.0574
vt 0.1987 0.0299
vt 0.2237 0.0290
vt 0.2875 0.0152
vt 0.1354 0.0651
vt 0.0230 0.1396
vt 0.0665 0.1118
vt 0.0791 0.0876
vt 0.1063 0.0645
vt 0.3235 0.3584
vt 0.2874 0.3699
vt 0.2899 0.3639
vt 0.3215 0.3544
vt 0.2767 0.2897
vt 0.3129 0.2590
vt 0.3116 0.2665
vt 0.2800 0.2931
vt 0.2494 0.3087
vt 0.2563 0.3101
vt 0.2562 0.3549
vt 0.2621 0.3507
vt 0.3541 0.2963
vt 0.3686 0.3284
vt 0.3602 0.3281
vt 0.3477 0.2991
vt 0.3132 0.3277
vt 0.3238 0.3214
vt 0.3205 0.3147
vt 0.3116 0.3058
vt 0.3056 0.3306
vt 0.3031 0.3131
vt 0.2971 0.3169
vt 0.2982 0.3277
vt 0.3081 0.3203
vn 0.0000 -1.0000 0.0000
vn -0.1306 -0.9828 -0.1306
vn 0.0000 -0.9796 -0.2009
vn 0.1306 -0.9828 -0.1306
vn -0.2009 -0.9796 0.0000
vn -0.1306 -0.9828 0.1306
vn -0.5209 -0.6762 0.5209
vn -0.7226 -0.6912 0.0000
vn 0.0000 -0.6912 -0.7226
vn 0.5209 -0.6762 -0.5209
vn 0.0000 -0.9796 0.2009
vn 0.0000 -0.6912 0.7226
vn -0.5209 -0.6762 -0.5209
vn 0.1306 -0.9828 0.1306
vn 0.2009 -0.9796 0.0000
vn 0.7226 -0.6912 0.0000
vn 0.5209 -0.6762 0.5209
vn 0.0000 -0.0179 -0.9998
vn 0.7067 0.0332 -0.7067
vn 0.9998 -0.0179 0.0000
vn 0.0000 -0.0179 0.9998
vn -0.7067 0.0332 0.7067
vn -0.7067 0.0332 -0.7067
vn -0.9998 -0.0179 0.0000
vn 0.7067 0.0332 0.7067
vn 0.0000 0.5155 0.8568
vn -0.5911 0.5488 0.5911
vn -0.5911 0.5488 -0.5911
vn 0.0000 0.5155 -0.8568
vn 0.5911 0.5488 -0.5911
vn 0.8568 0.5155 0.0000
vn -0.8568 0.5155 0.0000
vn 0.5911 0.5488 0.5911
vn 0.4364 0.7868 0.4364
vn 0.0000 0.7656 0.6432
vn -0.4364 0.7868 0.4364
vn -0.6432 0.7656 0.0000
vn 0.0000 0.7656 -0.6432
vn 0.4364 0.7868 -0.4364
vn -0.4364 0.7868 -0.4364
vn 0.6432 0.7656 0.0000
vn 0.9496 0.2373 0.2047
vn 0.6160 0.2761 0.7377
vn 0.0213 0.3816 0.9241
vn -0.6614 0.2514 0.7066
vn -0.9469 0.3216 -0.0052
vn -0.2211 0.1097 -0.9690
vn 0.8227 -0.0670 -0.5645
vn -0.7623 0.1947 -0.6173
vn -0.5528 0.5075 -0.6609
vn 0.0170 -0.0163 -0.9997
vn 0.7011 0.0201 -0.7127
vn 0.9368 0.3466 0.0478
vn -0.9439 0.2538 -0.2111
vn 0.6207 0.5588 0.5499
vn 0.1367 0.5213 0.8423
vn -0.6641 0.6455 0.3773
vn 0.2750 0.9247 -0.2633
vn 0.4071 0.9081 0.0976
vn -0.1609 0.9382 -0.3064
vn -0.2067 0.8391 -0.5031
vn 0.1758 0.8866 -0.4278
vn 0.2504 0.8357 -0.4887
vn 0.1969 0.9745 -0.1079
vn -0.1770 0.9760 -0.1265
vn 0.4461 0.8929 0.0605
vn 0.2360 0.9548 0.1805
vn -0.2289 0.9725 -0.0432
vn -0.4151 0.8363 -0.3581
vn 0.4330 0.8937 -0.1173
vn -0.1522 0.8445 -0.5134
vn 0.0438 0.7871 -0.6152
vn 0.3806 0.7597 -0.5272
vn 0.0971 0.9511 -0.2930
usemtl tools
s 1
f 17/1/1 14/2/2 4/3/3 10/4/4
f 3/5/5 9/6/6 11/7/7 5/8/8
f 10/9/4 4/10/3 8/11/9 12/12/10
f 9/6/6 1/13/11 6/14/12 11/7/7
f 14/15/2 3/5/5 5/8/8 16/16/13
f 13/17/14 2/18/15 7/19/16 15/20/17
f 2/21/15 10/9/4 12/12/10 7/22/16
f 13/17/14 17/1/1 10/4/4 2/18/15
f 1/13/11 9/23/6 17/1/1 13/17/14
f 1/13/11 13/17/14 15/20/17 6/14/12
f 4/10/3 14/15/2 16/16/13 8/11/9
f 9/23/6 3/24/5 14/2/2 17/1/1
f 12/12/10 8/11/9 21/25/18 23/26/19
f 7/22/16 12/12/10 23/26/19 20/27/20
f 11/7/7 6/14/12 19/28/21 22/29/22
f 8/11/9 16/16/13 25/30/23 21/25/18
f 16/16/13 5/8/8 18/31/24 25/30/23
f 15/20/17 7/19/16 20/32/20 24/33/25
f 5/8/8 11/7/7 22/29/22 18/31/24
f 6/14/12 15/20/17 24/33/25 19/28/21
f 22/29/22 19/28/21 27/34/26 30/35/27
f 21/25/18 25/30/23 33/36/28 29/37/29
f 20/27/20 23/26/19 31/38/30 28/39/31
f 25/30/23 18/31/24 26/40/32 33/36/28
f 24/33/25 20/32/20 28/41/31 32/42/33
f 19/28/21 24/33/25 32/42/33 27/34/26
f 18/31/24 22/29/22 30/35/27 26/40/32
f 23/26/19 21/25/18 29/37/29 31/38/30
f 27/34/26 32/42/33 40/43/34 35/44/35
f 26/40/32 30/35/27 38/45/36 34/46/37
f 31/38/30 29/37/29 37/47/38 39/48/39
f 30/35/27 27/34/26 35/44/35 38/45/36
f 29/37/29 33/36/28 41/49/40 37/47/38
f 28/39/31 31/38/30 39/48/39 36/50/41
f 33/36/28 26/40/32 34/46/37 41/49/40
f 32/42/33 28/41/31 36/51/41 40/43/34
f 40/43/34 36/51/41 44/52/42 48/53/43
f 35/44/35 40/43/34 48/53/43 43/54/44
f 34/46/37 38/45/36 46/55/45 42/56/46
f 39/48/39 37/47/38 45/57/47 47/58/48
f 38/45/36 35/44/35 43/54/44 46/55/45
f 37/47/38 41/49/40 49/59/49 45/57/47
f 36/50/41 39/48/39 47/58/48 44/60/42
f 41/49/40 34/46/37 42/56/46 49/59/49
f 45/57/47 49/59/49 57/61/50 53/62/51
f 44/60/42 47/58/48 55/63/52 52/64/53
f 49/59/49 42/56/46 50/65/54 57/61/50
f 48/53/43 44/52/42 52/66/53 56/67/55
f 43/54/44 48/53/43 56/67/55 51/68/56
f 42/56/46 46/55/45 54/69/57 50/65/54
f 47/58/48 45/57/47 53/62/51 55/63/52
f 46/55/45 43/54/44 51/68/56 54/69/57
f 57/70/50 50/71/54 58/72/58 65/73/59
f 56/74/55 52/75/53 60/76/60 64/77/61
f 51/78/56 56/74/55 64/77/61 59/79/62
f 50/71/54 54/80/57 62/81/63 58/72/58
f 55/82/52 53/83/51 61/84/64 63/85/65
f 54/80/57 51/78/56 59/79/62 62/81/63
f 53/83/51 57/70/50 65/73/59 61/84/64
f 52/75/53 55/82/52 63/85/65 60/76/60
f 61/84/64 65/73/59 73/86/66 69/87/67
f 60/76/60 63/85/65 71/88/68 68/89/69
f 65/73/59 58/72/58 66/90/70 73/86/66
f 64/77/61 60/76/60 68/89/69 72/91/71
f 59/79/62 64/77/61 72/91/71 67/92/72
f 58/72/58 62/81/63 70/93/73 66/90/70
f 63/85/65 61/84/64 69/87/67 71/88/68
f 62/81/63 59/79/62 67/92/72 70/93/73
f 70/93/73 67/92/72 72/91/71 74/94/74
f 73/86/66 66/90/70 70/93/73 74/94/74
f 72/91/71 68/89/69 71/88/68 74/94/74
f 69/87/67 73/86/66 74/94/74 71/88/68
