# Blender v2.77 (sub 0) OBJ File: 'props.blend'
# www.blender.org
mtllib tyre.mtl
o Plane.018_Plane.028
v -0.182268 0.337314 -0.381692
v -0.199255 0.297205 -0.417264
v -0.182268 0.000000 -0.381692
v -0.199255 0.040109 -0.417264
v -0.398780 0.337314 -0.141014
v -0.435945 0.297205 -0.154156
v -0.398780 -0.000000 -0.141014
v -0.435945 0.040109 -0.154156
v -0.381692 0.337314 0.182268
v -0.417264 0.297205 0.199255
v -0.381692 -0.000000 0.182268
v -0.417264 0.040109 0.199255
v -0.141014 0.337314 0.398780
v -0.154156 0.297205 0.435945
v -0.141014 -0.000000 0.398780
v -0.154156 0.040109 0.435945
v 0.182268 0.337314 0.381692
v 0.199254 0.297205 0.417264
v 0.182268 0.000000 0.381692
v 0.199254 0.040109 0.417264
v 0.398779 0.337314 0.141014
v 0.435944 0.297206 0.154156
v 0.398779 0.000000 0.141014
v 0.435944 0.040109 0.154156
v 0.381691 0.337314 -0.182268
v 0.417264 0.297206 -0.199255
v 0.381691 0.000000 -0.182268
v 0.417264 0.040109 -0.199255
v 0.141014 0.337314 -0.398779
v 0.154156 0.297206 -0.435945
v 0.141014 0.000000 -0.398779
v 0.154156 0.040109 -0.435945
v -0.109176 0.227159 -0.228627
v -0.238863 0.227159 -0.084465
v -0.228627 0.227159 0.109175
v -0.084465 0.227159 0.238863
v 0.109175 0.227159 0.228627
v 0.238862 0.227159 0.084465
v 0.228627 0.227159 -0.109176
v 0.084465 0.227159 -0.238862
v -0.074694 0.227159 -0.156418
v -0.163421 0.227159 -0.057788
v -0.156418 0.227159 0.074694
v -0.057788 0.227159 0.163420
v 0.074693 0.227159 0.156418
v 0.163420 0.227159 0.057788
v 0.156418 0.227159 -0.074694
v 0.057788 0.227159 -0.163420
v -0.000020 0.312905 0.000009
v -0.109176 0.320525 -0.228627
v -0.118403 0.337314 -0.247950
v -0.259051 0.337314 -0.091604
v -0.238863 0.320525 -0.084465
v -0.247950 0.337314 0.118403
v -0.228628 0.320525 0.109175
v -0.091604 0.337314 0.259050
v -0.084465 0.320525 0.238863
v 0.118402 0.337314 0.247950
v 0.109175 0.320525 0.228627
v 0.259050 0.337314 0.091604
v 0.238862 0.320525 0.084465
v 0.247950 0.337314 -0.118403
v 0.228627 0.320525 -0.109176
v 0.091604 0.337314 -0.259050
v 0.084465 0.320525 -0.238862
v -0.065469 0.312905 -0.137094
v -0.074694 0.296116 -0.156418
v -0.163421 0.296116 -0.057788
v -0.143233 0.312905 -0.050651
v -0.156418 0.296116 0.074694
v -0.137095 0.312905 0.065467
v -0.057788 0.296116 0.163420
v -0.050648 0.312905 0.143233
v 0.074693 0.296116 0.156418
v 0.065464 0.312905 0.137096
v 0.163420 0.296116 0.057788
v 0.143232 0.312905 0.050648
v 0.156418 0.296116 -0.074694
v 0.137095 0.312905 -0.065467
v 0.057788 0.296116 -0.163420
v 0.050650 0.312905 -0.143232
v -0.095700 0.000000 -0.200408
v -0.209380 -0.000000 -0.074040
v -0.200408 -0.000000 0.095700
v -0.074040 -0.000000 0.209380
v 0.095700 0.000000 0.200408
v 0.209380 0.000000 0.074040
v 0.200408 0.000000 -0.095700
v 0.074040 0.000000 -0.209380
v -0.095700 0.095159 -0.200408
v -0.209380 0.095159 -0.074040
v -0.200408 0.095159 0.095700
v -0.074040 0.095159 0.209380
v 0.095700 0.095159 0.200408
v 0.209380 0.095159 0.074040
v 0.200408 0.095159 -0.095700
v 0.074040 0.095159 -0.209380
v -0.000002 0.095159 0.000001
vt 0.3818 0.4536
vt 0.3329 0.4432
vt 0.3763 0.3732
vt 0.4034 0.4156
vt 0.4860 0.4244
vt 0.5278 0.3963
vt 0.5480 0.4764
vt 0.4991 0.4661
vt 0.5040 0.5458
vt 0.4783 0.5035
vt 0.4252 0.5617
vt 0.4347 0.5126
vt 0.3534 0.5227
vt 0.3942 0.4945
vt 0.4465 0.4034
vt 0.4567 0.3539
vt 0.1784 0.4778
vt 0.1609 0.4331
vt 0.1901 0.4341
vt 0.1998 0.4579
vt 0.4582 0.5667
vt 0.5061 0.5950
vt 0.4988 0.6006
vt 0.4570 0.5757
vt 0.1518 0.4331
vt 0.1737 0.3826
vt 0.1801 0.3890
vt 0.5197 0.6491
vt 0.5106 0.6479
vt 0.1720 0.4842
vt 0.4905 0.6969
vt 0.4849 0.6895
vt 0.2225 0.5061
vt 0.2225 0.4971
vt 0.4359 0.7100
vt 0.4372 0.7009
vt 0.2736 0.4859
vt 0.2672 0.4795
vt 0.3880 0.6810
vt 0.3953 0.6755
vt 0.2955 0.4355
vt 0.2865 0.4355
vt 0.3745 0.6270
vt 0.3835 0.6283
vt 0.2753 0.3844
vt 0.2689 0.3907
vt 0.4037 0.5795
vt 0.4092 0.5869
vt 0.2249 0.3625
vt 0.2249 0.3715
vt 0.4811 0.6139
vt 0.4535 0.5980
vt 0.4093 0.6323
vt 0.4244 0.6083
vt 0.4320 0.6183
vt 0.4215 0.6335
vt 0.4847 0.6438
vt 0.4696 0.6681
vt 0.4618 0.6582
vt 0.4724 0.6424
vt 0.4165 0.6598
vt 0.4261 0.6517
vt 0.4414 0.6747
vt 0.4427 0.6621
vt 0.4554 0.4495
vt 0.4586 0.4646
vt 0.4389 0.4608
vt 0.4428 0.4411
vt 0.4528 0.6019
vt 0.4515 0.6149
vt 0.4222 0.6050
vt 0.4779 0.6162
vt 0.4685 0.6243
vt 0.4054 0.6317
vt 0.4133 0.6622
vt 0.4407 0.6787
vt 0.4719 0.6714
vt 0.4886 0.6444
vt 0.3083 0.4621
vt 0.3295 0.4713
vt 0.3226 0.4780
vt 0.3081 0.4717
vt 0.2775 0.4918
vt 0.2867 0.4706
vt 0.2934 0.4775
vt 0.2871 0.4920
vt 0.3072 0.5225
vt 0.2860 0.5133
vt 0.2929 0.5067
vt 0.3074 0.5130
vt 0.3379 0.4928
vt 0.3287 0.5140
vt 0.3221 0.5072
vt 0.3284 0.4927
vt 0.4352 0.4806
vt 0.4501 0.4773
vt 0.4081 0.4829
vt 0.4017 0.4546
vt 0.4152 0.4563
vt 0.4188 0.4745
vt 0.4607 0.4911
vt 0.4329 0.4980
vt 0.4344 0.4845
vt 0.4523 0.4805
vt 0.4191 0.4570
vt 0.4275 0.4441
vt 0.4452 0.4237
vt 0.4693 0.4391
vt 0.4587 0.4474
vt 0.4435 0.4371
vt 0.4168 0.4299
vt 0.4252 0.4407
vt 0.4222 0.4721
vt 0.4760 0.4669
vt 0.4626 0.4653
vt 0.2473 0.4582
vt 0.2572 0.4345
vt 0.2001 0.4104
vt 0.2239 0.4007
vt 0.2235 0.4678
vt 0.2475 0.4107
vt 0.2094 0.4190
vt 0.2027 0.4336
vt 0.2244 0.4133
vt 0.2446 0.4350
vt 0.2390 0.4200
vt 0.2230 0.4552
vt 0.2380 0.4496
vt 0.2084 0.4486
vt 0.2237 0.4343
vn 0.3123 0.3497 -0.8832
vn 0.3123 -0.3497 -0.8832
vn -0.4037 -0.3497 -0.8454
vn -0.4037 0.3497 -0.8454
vn -0.8454 0.3497 0.4037
vn -0.8454 -0.3497 0.4037
vn -0.3123 -0.3497 0.8832
vn -0.3123 0.3497 0.8832
vn 0.4037 -0.3497 0.8454
vn 0.4037 0.3497 0.8454
vn 0.8832 -0.3497 0.3123
vn 0.8832 0.3497 0.3123
vn 0.8454 -0.3497 -0.4037
vn 0.8454 0.3497 -0.4037
vn -0.8832 0.3497 -0.3123
vn -0.8832 -0.3497 -0.3123
vn -0.4172 -0.8867 0.1992
vn -0.4359 -0.8867 -0.1541
vn 0.5604 -0.8042 0.1981
vn 0.5363 -0.8042 -0.2561
vn -0.4359 0.8867 -0.1541
vn -0.1992 0.8867 -0.4172
vn -0.1992 -0.8867 -0.4172
vn -0.4172 0.8867 0.1992
vn -0.1541 0.8867 0.4359
vn -0.1541 -0.8867 0.4359
vn 0.1992 0.8867 0.4172
vn 0.1992 -0.8867 0.4172
vn 0.4359 0.8867 0.1541
vn 0.4359 -0.8867 0.1541
vn 0.4172 0.8867 -0.1992
vn 0.4172 -0.8867 -0.1992
vn 0.1541 0.8867 -0.4359
vn 0.1541 -0.8867 -0.4359
vn 0.2357 0.9682 0.0833
vn 0.1077 0.9682 0.2256
vn -0.7886 0.4860 0.3766
vn -0.2914 0.4860 0.8239
vn -0.2588 0.6302 0.7320
vn -0.7006 0.6302 0.3345
vn 0.7886 0.4860 -0.3766
vn 0.2914 0.4860 -0.8239
vn 0.2588 0.6302 -0.7320
vn 0.7006 0.6302 -0.3345
vn -0.8239 0.4860 -0.2914
vn -0.7320 0.6302 -0.2588
vn -0.3766 0.4860 -0.7886
vn -0.3345 0.6302 -0.7006
vn -0.3724 0.9186 -0.1317
vn -0.3565 0.9186 0.1702
vn 0.0000 1.0000 0.0000
vn -0.1702 0.9186 -0.3565
vn 0.3766 0.4860 0.7886
vn 0.3345 0.6302 0.7006
vn -0.0833 0.9682 0.2357
vn 0.8239 0.4860 0.2914
vn 0.7320 0.6302 0.2588
vn -0.2256 0.9682 0.1077
vn -0.2357 0.9682 -0.0833
vn -0.1077 0.9682 -0.2256
vn 0.0833 0.9682 -0.2357
vn 0.2256 0.9682 -0.1077
vn 0.1981 0.8042 -0.5604
vn 0.5363 0.8042 -0.2561
vn 0.5604 0.8042 0.1981
vn 0.2561 0.8042 0.5363
vn -0.1981 0.8042 0.5604
vn -0.5363 0.8042 0.2561
vn -0.5604 0.8042 -0.1981
vn -0.2561 0.8042 -0.5363
vn 0.1702 0.9186 0.3565
vn -0.1317 0.9186 0.3724
vn 0.8269 0.4003 -0.3948
vn 0.8639 0.4003 0.3055
vn 0.3948 0.4003 0.8269
vn -0.3055 0.4003 0.8639
vn 0.3565 0.9186 -0.1702
vn 0.1317 0.9187 -0.3724
vn -0.8639 0.4003 -0.3055
vn -0.3948 0.4003 -0.8269
vn 0.3055 0.4003 -0.8639
vn 0.3724 0.9187 0.1317
vn -0.8269 0.4003 0.3948
vn -0.2561 -0.8042 -0.5363
vn -0.5604 -0.8042 -0.1981
vn 0.2561 -0.8042 0.5363
vn -0.1981 -0.8042 0.5604
vn 0.1981 -0.8042 -0.5604
vn -0.5363 -0.8042 0.2561
vn 0.3345 -0.6302 0.7006
vn 0.7320 -0.6302 0.2588
vn -0.2588 -0.6302 0.7320
vn -0.7320 -0.6302 -0.2588
vn -0.7006 -0.6302 0.3345
vn 0.2588 -0.6302 -0.7320
vn -0.3345 -0.6302 -0.7006
vn 0.7006 -0.6302 -0.3345
vn 0.0000 -1.0000 0.0000
usemtl car
s 1
f 30/1/1 32/2/2 4/3/3 2/4/4
f 10/5/5 12/6/6 16/7/7 14/8/8
f 14/8/8 16/7/7 20/9/9 18/10/10
f 18/10/10 20/9/9 24/11/11 22/12/12
f 22/12/12 24/11/11 28/13/13 26/14/14
f 26/14/14 28/13/13 32/2/2 30/1/1
f 6/15/15 8/16/16 12/6/6 10/5/5
f 11/17/17 7/18/18 83/19/19 84/20/20
f 2/4/4 4/3/3 8/16/16 6/15/15
f 2/21/4 6/22/15 5/23/21 1/24/22
f 8/25/16 4/26/3 3/27/23 7/18/18
f 6/22/15 10/28/5 9/29/24 5/23/21
f 12/30/6 8/25/16 7/18/18 11/17/17
f 10/28/5 14/31/8 13/32/25 9/29/24
f 16/33/7 12/30/6 11/17/17 15/34/26
f 14/31/8 18/35/10 17/36/27 13/32/25
f 20/37/9 16/33/7 15/34/26 19/38/28
f 18/35/10 22/39/12 21/40/29 17/36/27
f 24/41/11 20/37/9 19/38/28 23/42/30
f 22/39/12 26/43/14 25/44/31 21/40/29
f 28/45/13 24/41/11 23/42/30 27/46/32
f 26/43/14 30/47/1 29/48/33 25/44/31
f 32/49/2 28/45/13 27/46/32 31/50/34
f 30/47/1 2/21/4 1/24/22 29/48/33
f 4/26/3 32/49/2 31/50/34 3/27/23
f 1/24/22 5/23/21 52/51/35 51/52/36
f 63/53/37 65/54/38 40/55/39 39/56/40
f 55/57/41 57/58/42 36/59/43 35/60/44
f 61/61/45 63/53/37 39/56/40 38/62/46
f 59/63/47 61/61/45 38/62/46 37/64/48
f 69/65/49 71/66/50 49/67/51 66/68/52
f 57/58/42 59/63/47 37/64/48 36/59/43
f 65/54/38 50/69/53 33/70/54 40/55/39
f 29/48/33 1/24/22 51/52/36 64/71/55
f 53/72/56 55/57/41 35/60/44 34/73/57
f 21/40/29 25/44/31 62/74/58 60/75/59
f 13/32/25 17/36/27 58/76/60 56/77/61
f 5/23/21 9/29/24 54/78/62 52/51/35
f 25/44/31 29/48/33 64/71/55 62/74/58
f 17/36/27 21/40/29 60/75/59 58/76/60
f 9/29/24 13/32/25 56/77/61 54/78/62
f 39/79/40 40/80/39 48/81/63 47/82/64
f 37/83/48 38/84/46 46/85/65 45/86/66
f 35/87/44 36/88/43 44/89/67 43/90/68
f 33/91/54 34/92/57 42/93/69 41/94/70
f 40/80/39 33/91/54 41/94/70 48/81/63
f 38/84/46 39/79/40 47/82/64 46/85/65
f 36/88/43 37/83/48 45/86/66 44/89/67
f 34/92/57 35/87/44 43/90/68 42/93/69
f 75/95/71 49/67/51 71/66/50 73/96/72
f 46/97/65 47/98/64 78/99/73 76/100/74
f 44/101/67 45/102/66 74/103/75 72/104/76
f 66/68/52 49/67/51 79/105/77 81/106/78
f 41/107/70 42/108/69 68/109/79 67/110/80
f 47/98/64 48/111/63 80/112/81 78/99/73
f 79/105/77 49/67/51 75/95/71 77/113/82
f 48/111/63 41/107/70 67/110/80 80/112/81
f 45/102/66 46/97/65 76/100/74 74/103/75
f 43/114/68 44/101/67 72/104/76 70/115/83
f 42/108/69 43/114/68 70/115/83 68/109/79
f 53/72/56 50/69/53 51/52/36 52/51/35
f 55/57/41 53/72/56 52/51/35 54/78/62
f 57/58/42 55/57/41 54/78/62 56/77/61
f 59/63/47 57/58/42 56/77/61 58/76/60
f 61/61/45 59/63/47 58/76/60 60/75/59
f 63/53/37 61/61/45 60/75/59 62/74/58
f 65/54/38 63/53/37 62/74/58 64/71/55
f 50/69/53 65/54/38 64/71/55 51/52/36
f 69/65/49 66/68/52 67/110/80 68/109/79
f 71/66/50 69/65/49 68/109/79 70/115/83
f 73/96/72 71/66/50 70/115/83 72/104/76
f 75/95/71 73/96/72 72/104/76 74/103/75
f 77/113/82 75/95/71 74/103/75 76/100/74
f 79/105/77 77/113/82 76/100/74 78/99/73
f 81/106/78 79/105/77 78/99/73 80/112/81
f 66/68/52 81/106/78 80/112/81 67/110/80
f 50/69/53 53/72/56 34/73/57 33/70/54
f 23/42/30 19/38/28 86/116/84 87/117/85
f 7/18/18 3/27/23 82/118/86 83/19/19
f 3/27/23 31/50/34 89/119/87 82/118/86
f 19/38/28 15/34/26 85/120/88 86/116/84
f 31/50/34 27/46/32 88/121/89 89/119/87
f 15/34/26 11/17/17 84/20/20 85/120/88
f 27/46/32 23/42/30 87/117/85 88/121/89
f 83/19/19 82/118/86 90/122/90 91/123/91
f 82/118/86 89/119/87 97/124/92 90/122/90
f 88/121/89 87/117/85 95/125/93 96/126/94
f 86/116/84 85/120/88 93/127/95 94/128/96
f 84/20/20 83/19/19 91/123/91 92/129/97
f 89/119/87 88/121/89 96/126/94 97/124/92
f 87/117/85 86/116/84 94/128/96 95/125/93
f 85/120/88 84/20/20 92/129/97 93/127/95
f 90/122/90 97/124/92 96/126/94 98/130/98
f 92/129/97 98/130/98 94/128/96 93/127/95
f 98/130/98 92/129/97 91/123/91 90/122/90
f 94/128/96 98/130/98 96/126/94 95/125/93
