# Blender v2.77 (sub 0) OBJ File: 'props.blend'
# www.blender.org
mtllib vhs.mtl
o Cube.008_Cube.009
v -0.177789 0.000007 0.281721
v -0.177789 0.090799 0.281721
v -0.177789 0.000007 -0.281721
v -0.177789 0.090799 -0.281721
v 0.177789 0.000007 0.281721
v 0.177789 0.090799 0.281721
v 0.177789 0.000007 -0.281721
v 0.177789 0.090799 -0.281721
vt 0.8914 0.3585
vt 0.8914 0.6084
vt 0.8511 0.6084
vt 0.8511 0.3585
vt 0.7911 0.3595
vt 0.7911 0.5172
vt 0.8314 0.5172
vt 0.8314 0.3595
vt 0.9510 0.3585
vt 0.9510 0.6084
vt 0.9107 0.6084
vt 0.9107 0.3585
vt 0.7911 0.5172
vt 0.7911 0.3595
vt 0.8314 0.3595
vt 0.8314 0.5172
vt 0.9576 0.1216
vt 0.6417 0.1216
vt 0.6417 0.3209
vt 0.9576 0.3209
vt 0.9576 0.3209
vt 0.6417 0.3209
vt 0.6417 0.1216
vt 0.9576 0.1216
vn -0.5773 0.5773 0.5773
vn -0.5773 0.5773 -0.5773
vn -0.5773 -0.5773 -0.5773
vn -0.5773 -0.5773 0.5773
vn 0.5773 0.5773 -0.5773
vn 0.5773 -0.5773 -0.5773
vn 0.5773 0.5773 0.5773
vn 0.5773 -0.5773 0.5773
usemtl tools
s 1
f 2/1/1 4/2/2 3/3/3 1/4/4
f 4/5/2 8/6/5 7/7/6 3/8/3
f 8/9/5 6/10/7 5/11/8 7/12/6
f 6/13/7 2/14/1 1/15/4 5/16/8
f 1/17/4 3/18/3 7/19/6 5/20/8
f 6/21/7 8/22/5 4/23/2 2/24/1
