# Blender v2.77 (sub 0) OBJ File: 'props.blend'
# www.blender.org
mtllib wrench.mtl
o Plane_Plane.008
v -0.044172 0.707152 -0.551429
v -0.044172 0.858388 -0.619327
v -0.044172 0.766715 -0.619327
v -0.044172 0.909489 -0.545517
v -0.035197 0.734514 0.376843
v -0.035197 0.882503 0.381167
v -0.044172 0.594122 0.473411
v -0.044172 1.022895 0.485940
v -0.044172 0.642008 0.721532
v -0.044172 0.979670 0.727906
v -0.044172 0.734578 0.740665
v -0.044172 0.887816 0.744991
v -0.044172 0.736168 0.559795
v -0.044172 0.891990 0.564348
v -0.044172 0.814079 0.514723
v -0.044172 0.856215 -0.521776
v -0.044172 0.833785 -0.483490
v -0.044172 0.789413 -0.483772
v -0.044172 0.767471 -0.522340
v -0.044172 0.789901 -0.560627
v -0.044172 0.834273 -0.560345
v 0.044172 0.707152 -0.551429
v 0.044172 0.858388 -0.619327
v 0.044172 0.766715 -0.619327
v 0.044172 0.909489 -0.545517
v 0.035197 0.734514 0.376843
v 0.035197 0.882503 0.381167
v 0.044172 0.594122 0.473411
v 0.044172 1.022895 0.485940
v 0.044172 0.642008 0.721532
v 0.044172 0.979670 0.727906
v 0.044172 0.734578 0.740665
v 0.044172 0.887816 0.744991
v 0.044172 0.736168 0.559795
v 0.044172 0.891990 0.564348
v 0.044172 0.814079 0.514723
v 0.044172 0.856215 -0.521776
v 0.044172 0.833785 -0.483490
v 0.044172 0.789413 -0.483772
v 0.044172 0.767471 -0.522340
v 0.044172 0.789901 -0.560627
v 0.044172 0.834273 -0.560345
v 0.042821 0.711271 -0.411686
v -0.042876 0.905592 -0.411686
v -0.042821 0.711271 -0.411686
v 0.042876 0.905592 -0.411686
vt 0.5054 0.8062
vt 0.5054 0.7632
vt 0.5120 0.7632
vt 0.5120 0.8062
vt 0.2842 0.8061
vt 0.2842 0.7632
vt 0.2972 0.7676
vt 0.2972 0.8018
vt 0.2391 0.8061
vt 0.2391 0.7632
vt 0.2459 0.7632
vt 0.2459 0.8061
vt 0.4665 0.8062
vt 0.4665 0.7632
vt 0.4851 0.7632
vt 0.4851 0.8062
vt 0.3855 0.8062
vt 0.3855 0.7632
vt 0.3958 0.7639
vt 0.3958 0.8055
vt 0.2661 0.8061
vt 0.2661 0.7632
vt 0.3788 0.8061
vt 0.3788 0.7632
vt 0.4921 0.7632
vt 0.4921 0.8062
vt 0.3655 0.8061
vt 0.3655 0.7632
vt 0.3721 0.7632
vt 0.3721 0.8061
vt 0.2592 0.8061
vt 0.2592 0.7632
vt 0.3556 0.7639
vt 0.3556 0.8055
vt 0.4539 0.8018
vt 0.4539 0.7676
vt 0.1846 0.9126
vt 0.1271 0.8831
vt 0.1058 0.9167
vt 0.1395 0.9730
vt 0.1865 0.8489
vt 0.1449 0.7884
vt 0.1077 0.8496
vt 0.0381 0.8091
vt 0.0299 0.8489
vt 0.0354 0.9544
vt 0.0280 0.9149
vt 0.6153 0.9022
vt 0.5899 0.8918
vt 0.5733 0.9013
vt 0.5835 0.9242
vt 0.6153 0.8627
vt 0.5900 0.8727
vt 0.5861 0.8371
vt 0.5736 0.8631
vt 0.5568 0.8916
vt 0.5259 0.9225
vt 0.5259 0.8389
vt 0.1846 0.9126
vt 0.1395 0.9730
vt 0.1058 0.9167
vt 0.1271 0.8831
vt 0.1865 0.8489
vt 0.1449 0.7884
vt 0.1077 0.8496
vt 0.0381 0.8091
vt 0.0299 0.8489
vt 0.0354 0.9544
vt 0.0280 0.9149
vt 0.6153 0.9022
vt 0.5835 0.9242
vt 0.5733 0.9013
vt 0.5899 0.8918
vt 0.6153 0.8627
vt 0.5900 0.8727
vt 0.5861 0.8371
vt 0.5736 0.8631
vt 0.5259 0.9225
vt 0.5568 0.8916
vt 0.5259 0.8389
vt 0.5570 0.8725
vt 0.5570 0.8725
vn -0.8402 0.4781 0.2558
vn 0.8402 0.4781 0.2558
vn 0.8640 -0.0106 0.5033
vn -0.8640 -0.0106 0.5033
vn -0.6099 0.7337 -0.2995
vn 0.6099 0.7337 -0.2995
vn 0.8167 0.5071 -0.2755
vn -0.8167 0.5071 -0.2755
vn 0.8388 -0.4888 0.2395
vn -0.8388 -0.4888 0.2395
vn -0.6067 -0.7323 -0.3091
vn 0.6067 -0.7323 -0.3091
vn 0.6010 -0.5689 0.5614
vn -0.6010 -0.5689 0.5614
vn -0.6339 -0.7285 -0.2598
vn 0.6339 -0.7285 -0.2598
vn 0.7062 -0.7074 0.0289
vn -0.7062 -0.7074 0.0289
vn -0.5987 0.5683 0.5643
vn 0.5987 0.5683 0.5643
vn -0.6249 -0.3221 -0.7111
vn 0.6249 -0.3221 -0.7111
vn 0.5678 0.5170 0.6405
vn -0.5678 0.5170 0.6405
vn -0.6437 0.7343 -0.2154
vn 0.6437 0.7343 -0.2154
vn 0.6160 0.3656 -0.6977
vn -0.6160 0.3656 -0.6977
vn -0.5672 -0.5337 0.6272
vn 0.5672 -0.5337 0.6272
vn 0.7064 0.7072 0.0287
vn -0.7064 0.7072 0.0287
vn -0.8224 -0.4943 -0.2816
vn 0.8224 -0.4943 -0.2816
vn -0.8386 -0.2753 0.4700
vn -0.8402 -0.5422 0.0009
vn -0.8386 0.2693 0.4734
vn -0.8402 0.5421 0.0078
vn -0.8438 -0.2686 -0.4645
vn 0.8402 -0.5422 0.0009
vn 0.8386 -0.2753 0.4700
vn 0.8386 0.2693 0.4734
vn 0.8402 0.5421 0.0078
vn 0.8438 -0.2686 -0.4645
vn 0.8439 0.2744 -0.4610
vn -0.8439 0.2744 -0.4610
usemtl tools
s 1
f 13/1/1 34/2/2 36/3/3 15/4/4
f 8/5/5 29/6/6 27/7/7 6/8/8
f 15/9/4 36/10/3 35/11/9 14/12/10
f 7/13/11 28/14/12 30/15/13 9/16/14
f 1/17/15 22/18/16 43/19/17 45/20/18
f 10/21/19 31/22/20 29/6/6 8/5/5
f 3/23/21 24/24/22 22/18/16 1/17/15
f 9/16/14 30/15/13 32/25/23 11/26/24
f 4/27/25 25/28/26 23/29/27 2/30/28
f 12/31/29 33/32/30 31/22/20 10/21/19
f 2/30/28 23/29/27 24/24/22 3/23/21
f 11/26/24 32/25/23 34/2/2 13/1/1
f 6/8/8 27/7/7 46/33/31 44/34/32
f 14/12/10 35/11/9 33/32/30 12/31/29
f 5/35/33 26/36/34 28/14/12 7/13/11
f 45/20/18 43/19/17 26/36/34 5/35/33
f 44/34/32 46/33/31 25/28/26 4/27/25
usemtl tools_NONE
f 6/37/8 15/38/4 14/39/10 8/40/5
f 6/37/8 5/41/33 15/38/4
f 7/42/11 13/43/1 15/38/4 5/41/33
f 9/44/14 11/45/24 13/43/1 7/42/11
f 10/46/19 8/40/5 14/39/10 12/47/29
f 2/48/28 21/49/35 16/50/36 4/51/25
f 3/52/21 20/53/37 21/49/35 2/48/28
f 1/54/15 19/55/38 20/53/37 3/52/21
f 4/51/25 16/50/36 17/56/39 44/57/32
f 6/37/8 44/57/32 45/58/18 5/41/33
f 27/59/7 29/60/6 35/61/9 36/62/3
f 27/59/7 36/62/3 26/63/34
f 28/64/12 26/63/34 36/62/3 34/65/2
f 30/66/13 28/64/12 34/65/2 32/67/23
f 31/68/20 33/69/30 35/61/9 29/60/6
f 23/70/27 25/71/26 37/72/40 42/73/41
f 24/74/22 23/70/27 42/73/41 41/75/42
f 22/76/16 24/74/22 41/75/42 40/77/43
f 25/71/26 46/78/31 38/79/44 37/72/40
f 27/59/7 26/63/34 43/80/17 46/78/31
f 16/50/36 37/72/40 38/79/44 17/56/39
f 17/56/39 38/79/44 39/81/45 18/82/46
f 18/82/46 39/81/45 40/77/43 19/55/38
f 19/55/38 40/77/43 41/75/42 20/53/37
f 20/53/37 41/75/42 42/73/41 21/49/35
f 21/49/35 42/73/41 37/72/40 16/50/36
f 45/58/18 18/82/46 19/55/38 1/54/15
f 43/80/17 22/76/16 40/77/43 39/81/45
f 45/58/18 44/57/32 17/56/39 18/82/46
f 46/78/31 43/80/17 39/81/45 38/79/44
